<?xml version="1.0" encoding="UTF-8" standalone="no"?>
<!-- Created with Inkscape (http://www.inkscape.org/) -->

<svg
   xmlns:dc="http://purl.org/dc/elements/1.1/"
   xmlns:cc="http://creativecommons.org/ns#"
   xmlns:rdf="http://www.w3.org/1999/02/22-rdf-syntax-ns#"
   xmlns:svg="http://www.w3.org/2000/svg"
   xmlns="http://www.w3.org/2000/svg"
   xmlns:sodipodi="http://sodipodi.sourceforge.net/DTD/sodipodi-0.dtd"
   xmlns:inkscape="http://www.inkscape.org/namespaces/inkscape"
   width="24"
   height="12"
   viewBox="0 0 6.3500001 3.1749999"
   version="1.1"
   id="svg8"
   inkscape:version="0.92.4 (5da689c313, 2019-01-14)"
   sodipodi:docname="stratus05.svg">
  <defs
     id="defs2" />
  <sodipodi:namedview
     id="base"
     pagecolor="#ffffff"
     bordercolor="#666666"
     borderopacity="1.0"
     inkscape:pageopacity="0.0"
     inkscape:pageshadow="2"
     inkscape:zoom="44.8"
     inkscape:cx="7.1288467"
     inkscape:cy="3.6369893"
     inkscape:document-units="mm"
     inkscape:current-layer="layer1"
     showgrid="false"
     inkscape:window-width="1920"
     inkscape:window-height="991"
     inkscape:window-x="-9"
     inkscape:window-y="-9"
     inkscape:window-maximized="1"
     units="px" />
  <metadata
     id="metadata5">
    <rdf:RDF>
      <cc:Work
         rdf:about="">
        <dc:format>image/svg+xml</dc:format>
        <dc:type
           rdf:resource="http://purl.org/dc/dcmitype/StillImage" />
        <dc:title />
      </cc:Work>
    </rdf:RDF>
  </metadata>
  <g
     inkscape:label="Ebene 1"
     inkscape:groupmode="layer"
     id="layer1"
     transform="translate(0,-293.825)">
    <path
       style="fill:#000000;stroke-width:0.26458332"
       d=""
       id="path4529"
       inkscape:connector-curvature="0" />
    <path
       style="fill:#aeaeae;fill-opacity:1;stroke:none;stroke-width:0.26458332px;stroke-linecap:butt;stroke-linejoin:miter;stroke-opacity:1"
       d="M 0.41341145,296.02553 H 5.5160901 c 0.6055897,-0.0224 0.5934912,-1.0021 0.059058,-1.22842 -0.4322161,-0.25987 -0.5825147,-0.21533 -0.9685639,0.0413 -0.062323,0.15603 -0.1391698,0.30116 -0.1417413,0.502 l -0.8799756,-0.006 c -0.024256,-0.31279 -0.1844547,-0.47265 -0.4606586,-0.502 -0.2680009,0.0489 -0.4190308,0.21487 -0.4665644,0.48428 h -0.980375 c 0.010674,-0.79899 -0.9019791,-0.70373 -1.00990468,-0.53741 -0.25694495,0.36072 -0.39149261,0.31201 -0.54334075,0.60831 -0.11876356,0.27135 -0.003769,0.5882 0.28938758,0.63794 z"
       id="path824"
       inkscape:connector-curvature="0"
       sodipodi:nodetypes="cccccccccccc" />
    <path
       style="fill:#d3d3d3;fill-opacity:1;stroke:none;stroke-width:0.23384136px;stroke-linecap:butt;stroke-linejoin:miter;stroke-opacity:1"
       d="M 0.94376046,296.46707 H 5.7857442 c 0.5746502,-0.0184 0.56317,-0.8249 0.056041,-1.01121 -0.4101344,-0.21391 -0.5527543,-0.17725 -0.9190801,0.034 -0.059139,0.12844 -0.1320597,0.24791 -0.1344998,0.41324 l -0.8350181,-0.005 c -0.023017,-0.25748 -0.1750308,-0.38908 -0.4371234,-0.41324 -0.2543088,0.0403 -0.3976226,0.17688 -0.4427278,0.39865 H 2.1430479 c 0.010129,-0.65771 -0.8558972,-0.57929 -0.9583089,-0.44238 -0.24381767,0.29693 -0.37149126,0.25684 -0.51558157,0.50074 -0.11269589,0.22337 -0.003577,0.4842 0.27460303,0.52514 z"
       id="path824-6"
       inkscape:connector-curvature="0"
       sodipodi:nodetypes="cccccccccccc" />
  </g>
</svg>
